<svg width="119" height="118" viewBox="0 0 119 118" fill="none" xmlns="http://www.w3.org/2000/svg">
<rect width="119" height="118" rx="59" fill="url(#paint0_linear_226_860)"/>
<g clip-path="url(#clip0_226_860)">
<g filter="url(#filter0_d_226_860)">
<path d="M55.6517 75.4567C55.1751 68.5786 49.8019 63.2747 43.1062 62.8993C45.6558 57.0989 50.064 47.5688 53.6859 42.1317C63.4435 27.5072 77.9787 27.0141 86.6521 28.6388C88.046 28.8978 89.1183 29.9896 89.3685 31.3979C90.965 40.2184 90.4884 54.9918 76.0962 64.9094C70.7707 68.5665 61.43 72.9137 55.6517 75.4567ZM74.75 38.6563C72.1169 38.6563 69.9843 40.8239 69.9843 43.5001C69.9843 46.1762 72.1169 48.3438 74.75 48.3438C77.383 48.3438 79.5156 46.1762 79.5156 43.5001C79.5156 40.8239 77.383 38.6563 74.75 38.6563Z" fill="white"/>
</g>
<g filter="url(#filter1_d_226_860)">
<path d="M31.7522 62.875C30.8265 62.875 29.8738 62.3059 29.3674 61.3977C28.8609 60.4773 28.8792 59.2543 29.4155 58.4551L35.7029 47.9441C37.2577 45.3406 40.0372 43.7422 43.0348 43.7422H52.6614C49.2659 49.3004 45.4295 57.6074 43.1182 62.875H31.7522ZM74.4045 75.7352C74.4045 78.7867 72.9391 81.6082 70.3776 83.1945L60.0362 89.5762C59.1426 90.1211 58.0465 90.1453 57.1411 89.6246C56.2475 89.116 55.5803 88.1473 55.5803 87.0938V75.4445C60.9178 73.1438 69.079 69.3535 74.4045 65.9508V75.7352ZM48.837 84.9141C42.9395 90.9082 29.0568 89.9395 29.0568 89.9395C29.0568 89.9395 28.1046 75.723 34.0016 69.8379C38.0988 65.6723 44.7385 65.6723 48.837 69.8379C52.9354 74.0035 52.9354 80.7484 48.837 84.9141ZM43.2731 75.493C41.903 74.1125 39.7001 74.1125 38.3383 75.493C36.3772 77.491 36.6941 82.1773 36.6941 82.1773C36.6941 82.1773 41.3073 82.5043 43.2731 80.5063C44.6313 79.1258 44.6313 76.8855 43.2731 75.493Z" fill="#D0D1E9"/>
</g>
</g>
<defs>
<filter id="filter0_d_226_860" x="35.1062" y="24" width="62.8909" height="63.4567" filterUnits="userSpaceOnUse" color-interpolation-filters="sRGB">
<feFlood flood-opacity="0" result="BackgroundImageFix"/>
<feColorMatrix in="SourceAlpha" type="matrix" values="0 0 0 0 0 0 0 0 0 0 0 0 0 0 0 0 0 0 127 0" result="hardAlpha"/>
<feOffset dy="4"/>
<feGaussianBlur stdDeviation="4"/>
<feComposite in2="hardAlpha" operator="out"/>
<feColorMatrix type="matrix" values="0 0 0 0 0 0 0 0 0 0 0 0 0 0 0 0 0 0 0.75 0"/>
<feBlend mode="overlay" in2="BackgroundImageFix" result="effect1_dropShadow_226_860"/>
<feBlend mode="normal" in="SourceGraphic" in2="effect1_dropShadow_226_860" result="shape"/>
</filter>
<filter id="filter1_d_226_860" x="21" y="39.7422" width="61.4045" height="62.2583" filterUnits="userSpaceOnUse" color-interpolation-filters="sRGB">
<feFlood flood-opacity="0" result="BackgroundImageFix"/>
<feColorMatrix in="SourceAlpha" type="matrix" values="0 0 0 0 0 0 0 0 0 0 0 0 0 0 0 0 0 0 127 0" result="hardAlpha"/>
<feOffset dy="4"/>
<feGaussianBlur stdDeviation="4"/>
<feComposite in2="hardAlpha" operator="out"/>
<feColorMatrix type="matrix" values="0 0 0 0 0 0 0 0 0 0 0 0 0 0 0 0 0 0 0.75 0"/>
<feBlend mode="overlay" in2="BackgroundImageFix" result="effect1_dropShadow_226_860"/>
<feBlend mode="normal" in="SourceGraphic" in2="effect1_dropShadow_226_860" result="shape"/>
</filter>
<linearGradient id="paint0_linear_226_860" x1="7.93215" y1="15.0855" x2="111.76" y2="119.092" gradientUnits="userSpaceOnUse">
<stop stop-color="#F295B3"/>
<stop offset="0.471038" stop-color="#C1A5D5"/>
<stop offset="0.908097" stop-color="#6785D2"/>
</linearGradient>
<clipPath id="clip0_226_860">
<rect width="100" height="100" fill="white" transform="translate(9.5 9)"/>
</clipPath>
</defs>
</svg>
