<svg width="119" height="118" viewBox="0 0 119 118" fill="none" xmlns="http://www.w3.org/2000/svg">
<rect width="119" height="118" rx="59" fill="url(#paint0_linear_226_835)"/>
<path d="M53.2063 98.4925C53.7748 98.7302 54.3761 98.8747 54.9859 98.9377L73.7452 100.852C74.1499 100.892 74.5531 100.945 74.9562 101C78.1461 101.436 80.6234 99.3227 81.1553 96.3613L91.9238 33.5132C92.3264 31.198 91.1079 28.8822 88.9834 28.0372C88.7652 27.9507 88.5469 27.8828 88.3334 27.8346L66.0404 27.7229C63.4948 27.7229 62.0019 29.7353 61.5113 32.2116L50.2067 93.1551C49.7897 95.2606 50.5362 97.3765 53.2063 98.4925Z" fill="url(#paint1_linear_226_835)"/>
<path d="M53.8425 97.5513L74.2224 99.9268C77.106 100.263 79.7396 98.1394 80.2482 95.0679L90.7497 31.8722C91.1565 29.4151 89.2324 27.3736 86.9119 27.3736L66.532 26.9399C64.1999 26.9399 62.1936 28.7153 61.7443 31.1767L50.5133 92.6853C50.0826 95.0433 51.6217 97.2923 53.8425 97.5513Z" fill="url(#paint2_linear_226_835)"/>
<path d="M53.8294 97.5513L74.1287 99.9268C77.0012 100.263 79.6237 98.1394 80.1307 95.0679L90.5898 31.8722C90.9951 29.4151 89.2452 27.159 86.9342 27.159L66.468 26.9399C64.1449 26.9399 62.147 28.7153 61.6994 31.1767L50.5134 92.6853C50.0848 95.0433 51.6175 97.2923 53.8294 97.5513Z" fill="url(#paint3_linear_226_835)"/>
<path d="M53.4118 97.5513L73.8516 99.9268C76.7437 100.263 79.3847 98.1394 79.8949 95.0679L90.4271 31.8722C90.835 29.4151 89.0734 27.159 86.7461 27.159L66.1384 26.9399C63.7994 26.9399 61.7872 28.7153 61.3364 31.1767L50.0726 92.6853C49.6408 95.0433 51.1841 97.2923 53.4118 97.5513Z" fill="#231F20"/>
<path d="M54.5429 96.6873L73.5506 98.6619C76.4178 99.0463 78.5555 97.3498 78.9661 94.1152L89.1598 32.7747C89.8575 29.2043 87.706 28.3802 85.5418 28.3802L66.3778 28.1677C64.2025 28.1677 62.638 29.7793 62.2184 32.1663L51.5909 91.8049C51.0224 94.982 52.4714 96.4359 54.5429 96.6867V96.6873Z" fill="#6785D2"/>
<path d="M71.9209 32.2529H78.1433C79.0397 32.2529 79.7666 31.5016 79.7666 30.575V30.1835C79.7666 29.6277 79.3306 29.177 78.7928 29.177H72.2733C71.3917 29.177 70.677 29.9157 70.677 30.8269V30.9666C70.677 31.6768 71.2343 32.2529 71.9215 32.2529H71.9209Z" fill="#231F20"/>
<path d="M72.2032 31.1283C72.4245 31.0912 72.5747 30.8757 72.5388 30.6471C72.5029 30.4184 72.2944 30.2631 72.0732 30.3002C71.852 30.3373 71.7017 30.5528 71.7376 30.7815C71.7735 31.0101 71.982 31.1654 72.2032 31.1283Z" fill="#414042"/>
<path d="M72.1382 30.7349C72.1382 30.8093 72.1965 30.8701 72.269 30.8701C72.3416 30.8701 72.3999 30.8093 72.3999 30.7349C72.3999 30.6604 72.3416 30.5996 72.269 30.5996C72.1965 30.5996 72.1382 30.6604 72.1382 30.7349Z" fill="#231F20"/>
<path d="M87.6055 54.7197L87.8375 54.7592C88.0351 54.7931 88.2222 54.6546 88.2545 54.4503L89.3146 47.809C89.3644 47.4974 89.1604 47.2039 88.859 47.1524C88.5718 47.1037 88.3011 47.3041 88.2534 47.6009L87.2087 54.1475C87.1652 54.4185 87.3432 54.6748 87.6055 54.7197Z" fill="#231F20"/>
<path d="M87.7225 54.74C87.9694 54.7822 88.202 54.6097 88.2428 54.3545L89.2584 47.9925C89.2992 47.7373 89.1323 47.4969 88.8854 47.4548L88.8722 47.4526C88.6311 47.4115 88.4033 47.5802 88.3636 47.8293L87.3469 54.1985C87.3061 54.4553 87.4741 54.6979 87.7225 54.74Z" fill="#565556"/>
<path d="M88.3535 47.8911L87.3543 54.1502C87.3294 54.3074 87.4078 54.4788 87.4794 54.5877C87.4327 54.4875 87.3686 54.3424 87.3893 54.2137L88.3885 47.9547C88.4112 47.8128 88.4759 47.6918 88.5622 47.6113C88.6486 47.5308 88.7572 47.4903 88.8669 47.5089C88.9935 47.5303 89.1 47.6119 89.172 47.7274C89.1021 47.5779 88.9813 47.4706 88.8319 47.4454C88.7222 47.4268 88.6142 47.4673 88.5273 47.5478C88.4409 47.6283 88.3758 47.7493 88.3535 47.8911Z" fill="url(#paint4_linear_226_835)"/>
<g filter="url(#filter0_d_226_835)">
<rect x="23.6001" y="20" width="49" height="49.8305" rx="12" fill="white"/>
<path d="M50.1295 33.9961C46.492 33.9961 46.8502 34.0238 43.2124 34.0238V42.1754H51.2594V50.2445C61.4281 49.198 61.0424 33.9961 50.1295 33.9961Z" fill="#151233"/>
<path d="M37.5901 42.1748V55.8344H51.2588V50.2444H43.212V42.1748H37.5901Z" fill="#151233"/>
</g>
<defs>
<filter id="filter0_d_226_835" x="7.6001" y="12" width="81" height="81.8306" filterUnits="userSpaceOnUse" color-interpolation-filters="sRGB">
<feFlood flood-opacity="0" result="BackgroundImageFix"/>
<feColorMatrix in="SourceAlpha" type="matrix" values="0 0 0 0 0 0 0 0 0 0 0 0 0 0 0 0 0 0 127 0" result="hardAlpha"/>
<feOffset dy="8"/>
<feGaussianBlur stdDeviation="8"/>
<feComposite in2="hardAlpha" operator="out"/>
<feColorMatrix type="matrix" values="0 0 0 0 0 0 0 0 0 0 0 0 0 0 0 0 0 0 0.75 0"/>
<feBlend mode="overlay" in2="BackgroundImageFix" result="effect1_dropShadow_226_835"/>
<feBlend mode="normal" in="SourceGraphic" in2="effect1_dropShadow_226_835" result="shape"/>
</filter>
<linearGradient id="paint0_linear_226_835" x1="7.93215" y1="15.0855" x2="111.76" y2="119.092" gradientUnits="userSpaceOnUse">
<stop stop-color="#F295B3"/>
<stop offset="0.471038" stop-color="#C1A5D5"/>
<stop offset="0.908097" stop-color="#6785D2"/>
</linearGradient>
<linearGradient id="paint1_linear_226_835" x1="77.1734" y1="26.5154" x2="64.2506" y2="99.4113" gradientUnits="userSpaceOnUse">
<stop stop-color="#565758"/>
<stop offset="0.03" stop-color="#A0A2A4"/>
<stop offset="0.06" stop-color="#121619"/>
<stop offset="0.09" stop-color="#2F3336"/>
<stop offset="0.51" stop-color="#4B4D4F"/>
<stop offset="0.75" stop-color="#494B4D"/>
<stop offset="0.84" stop-color="#424547"/>
<stop offset="0.9" stop-color="#373B3E"/>
<stop offset="0.92" stop-color="#2A2E31"/>
<stop offset="0.93" stop-color="#202427"/>
<stop offset="0.97" stop-color="#696D70"/>
<stop offset="1" stop-color="#1D2124"/>
</linearGradient>
<linearGradient id="paint2_linear_226_835" x1="50.4413" y1="63.4506" x2="90.8042" y2="63.4506" gradientUnits="userSpaceOnUse">
<stop stop-color="#565758"/>
<stop offset="0.03" stop-color="#A0A2A4"/>
<stop offset="0.06" stop-color="#121619"/>
<stop offset="0.09" stop-color="#2F3336"/>
<stop offset="0.51" stop-color="#4B4D4F"/>
<stop offset="0.75" stop-color="#494B4D"/>
<stop offset="0.84" stop-color="#424547"/>
<stop offset="0.9" stop-color="#373B3E"/>
<stop offset="0.92" stop-color="#2A2E31"/>
<stop offset="0.93" stop-color="#202427"/>
<stop offset="0.97" stop-color="#696D70"/>
<stop offset="1" stop-color="#1D2124"/>
</linearGradient>
<linearGradient id="paint3_linear_226_835" x1="90.6486" y1="63.4506" x2="50.4414" y2="63.4506" gradientUnits="userSpaceOnUse">
<stop stop-color="#C1BDBC"/>
<stop offset="0.04" stop-color="#1F1A14"/>
<stop offset="0.07" stop-color="#999589"/>
<stop offset="0.51" stop-color="#A1998E"/>
<stop offset="0.71" stop-color="#9F978C"/>
<stop offset="0.79" stop-color="#989085"/>
<stop offset="0.84" stop-color="#8C847A"/>
<stop offset="0.88" stop-color="#7B746B"/>
<stop offset="0.9" stop-color="#716A61"/>
<stop offset="0.91" stop-color="#645D55"/>
<stop offset="0.92" stop-color="#423D36"/>
<stop offset="0.93" stop-color="#2F2A24"/>
<stop offset="0.96" stop-color="#C2BEB5"/>
<stop offset="1" stop-color="#6B6863"/>
</linearGradient>
<linearGradient id="paint4_linear_226_835" x1="88.6967" y1="51.1061" x2="87.923" y2="50.9827" gradientUnits="userSpaceOnUse">
<stop stop-color="#C1BDBC"/>
<stop offset="0.04" stop-color="#1F1A14"/>
<stop offset="0.07" stop-color="#999589"/>
<stop offset="0.51" stop-color="#A1998E"/>
<stop offset="0.71" stop-color="#9F978C"/>
<stop offset="0.79" stop-color="#989085"/>
<stop offset="0.84" stop-color="#8C847A"/>
<stop offset="0.88" stop-color="#7B746B"/>
<stop offset="0.9" stop-color="#716A61"/>
<stop offset="0.91" stop-color="#645D55"/>
<stop offset="0.92" stop-color="#423D36"/>
<stop offset="0.93" stop-color="#2F2A24"/>
<stop offset="0.96" stop-color="#C2BEB5"/>
<stop offset="1" stop-color="#6B6863"/>
</linearGradient>
</defs>
</svg>
