<svg width="119" height="118" viewBox="0 0 119 118" fill="none" xmlns="http://www.w3.org/2000/svg">
<rect width="119" height="118" rx="59" fill="url(#paint0_linear_226_865)"/>
<g clip-path="url(#clip0_226_865)">
<g filter="url(#filter0_d_226_865)">
<path d="M96.6472 48.503C96.5792 47.6401 96.0076 46.9107 95.2019 46.6004C92.5997 45.6041 90.3841 43.6063 89.181 40.8571C87.978 38.1053 88.0133 35.1248 89.0477 32.539C89.3689 31.7388 89.2219 30.8215 88.6339 30.1873C87.8691 29.3625 87.0607 28.5868 86.2169 27.8601C85.5527 27.2885 84.6164 27.1796 83.8134 27.5334C81.2794 28.6576 78.3098 28.8073 75.5198 27.7158C72.7271 26.6243 70.6476 24.4958 69.548 21.9426C69.2023 21.137 68.4401 20.5844 67.5637 20.5517C66.4531 20.5136 65.3372 20.5327 64.2185 20.6198C63.3556 20.6851 62.6262 21.2594 62.3159 22.0678C61.3196 24.6727 59.3218 26.8911 56.5645 28.0969C53.8072 29.3027 50.8185 29.2646 48.2273 28.2221C47.4243 27.9009 46.507 28.0479 45.8728 28.6358C45.0535 29.3952 44.2832 30.1982 43.5619 31.0338C42.9876 31.7007 42.8787 32.6397 43.2353 33.4427C44.3676 35.9822 44.5228 38.96 43.4286 41.7554C42.3316 44.5562 40.195 46.6385 37.6364 47.7354C36.828 48.0838 36.27 48.8459 36.24 49.7278C36.2019 50.8302 36.2237 51.9407 36.3081 53.0513C36.3734 53.9141 36.9477 54.6463 37.7588 54.9566C40.1732 55.8739 42.2554 57.654 43.5102 60.101C43.6599 59.9649 43.8015 59.8234 43.9376 59.6737C44.3077 59.2654 44.8821 59.0993 45.4101 59.2627C46.0851 59.4695 46.7438 59.7118 47.3862 59.9894C47.8843 60.2044 48.2191 60.6889 48.2355 61.2333C48.2872 63.0053 49.0275 64.7555 50.432 66.0538C51.8393 67.3494 53.6412 67.9455 55.4077 67.8557C55.9493 67.8285 56.4583 68.1252 56.7142 68.6042C57.0435 69.2248 57.3402 69.8645 57.6015 70.5232C57.8029 71.0349 57.6859 71.6174 57.3076 72.0202C56.902 72.453 56.5536 72.9375 56.2732 73.4628C56.6733 73.569 57.0735 73.6969 57.4681 73.8548C60.2663 74.949 62.3458 77.0802 63.4482 79.6388C63.7938 80.4472 64.5587 80.9998 65.4379 81.0324C66.543 81.0705 67.6535 81.0488 68.7668 80.9644C69.6296 80.8991 70.3618 80.3247 70.6694 79.5163C71.6656 76.9088 73.6635 74.6877 76.4208 73.4819C79.1182 72.3006 82.0306 72.3142 84.5783 73.2832C85.4929 73.6343 86.5299 73.422 87.2376 72.7442C87.9834 72.0338 88.8843 71.1465 89.4206 70.5177C89.9786 69.8699 90.1228 68.9472 89.7717 68.1687C88.6203 65.6156 88.4597 62.6215 89.5621 59.8098C90.6536 57.0198 92.7794 54.9403 95.3271 53.8433C96.1328 53.4949 96.6853 52.7328 96.718 51.8564C96.7561 50.7458 96.737 49.6271 96.6499 48.5057L96.6472 48.503ZM72.1283 63.7048C64.9942 66.8268 56.6815 63.5741 53.5622 56.44C50.4402 49.3059 53.6956 40.9932 60.827 37.8739C67.9611 34.7519 76.2738 38.0046 79.3931 45.1387C82.5151 52.2728 79.2597 60.5855 72.1283 63.7048Z" fill="white"/>
</g>
<g filter="url(#filter1_d_226_865)">
<path fill-rule="evenodd" clip-rule="evenodd" d="M55.4702 76.955C55.5491 78.8576 56.3956 80.5452 57.7021 81.7347L57.7076 81.7319C58.1158 82.1048 58.2792 82.6764 58.1186 83.2018C57.9117 83.8795 57.6667 84.5409 57.3891 85.1833C57.1741 85.6814 56.6896 86.0189 56.1479 86.0353C54.3787 86.087 52.6312 86.8246 51.3329 88.2318C50.0345 89.6391 49.4411 91.4437 49.531 93.2156C49.5582 93.7573 49.2615 94.2663 48.7824 94.5222C47.8842 95.0012 46.9424 95.4095 45.9625 95.7416H45.9598C44.6451 94.1601 42.6364 93.1857 40.4235 93.2755C38.5181 93.3517 36.8251 94.201 35.6356 95.5129C35.2655 95.9239 34.6939 96.0872 34.1658 95.9267C33.4935 95.7225 32.8375 95.4803 32.1979 95.2054C31.6998 94.9903 31.3623 94.5058 31.3459 93.9615C31.2942 92.1841 30.5566 90.4284 29.1466 89.1301C27.734 87.829 25.9239 87.2356 24.1492 87.3309C23.6048 87.3608 23.0931 87.0641 22.8373 86.5824C22.5106 85.9699 22.2167 85.3357 21.9581 84.6852C21.7539 84.1735 21.8737 83.5883 22.252 83.1854C23.466 81.8953 24.1764 80.1369 24.1002 78.2288C24.024 76.3181 23.1721 74.6223 21.8601 73.4356C21.4491 73.0654 21.2831 72.4911 21.4464 71.963C21.6505 71.2907 21.8928 70.6347 22.1677 69.9978C22.3827 69.4997 22.8699 69.1622 23.4143 69.1459C25.1917 69.0969 26.9473 68.3592 28.2484 66.9493C29.5467 65.5393 30.1401 63.7293 30.0476 61.9573C30.0176 61.4157 30.3143 60.9039 30.7961 60.6481C31.4113 60.3214 32.0482 60.0275 32.7014 59.7689C33.2159 59.5648 33.7984 59.6845 34.2012 60.0629C35.4887 61.2741 37.2443 61.9845 39.1523 61.9083C41.0577 61.8321 42.7507 60.9829 43.9374 59.6736C44.3076 59.2626 44.8792 59.0993 45.4073 59.2599C46.0823 59.4668 46.741 59.709 47.3834 59.9867C47.8788 60.2017 48.2163 60.6862 48.2326 61.2278C48.2843 62.9998 49.022 64.75 50.4292 66.0483C51.8337 67.3467 53.6383 67.9401 55.4048 67.8502C55.9465 67.823 56.4555 68.1197 56.7113 68.5988C57.0407 69.2166 57.3374 69.8563 57.5987 70.515C57.8028 71.0267 57.6831 71.6092 57.3074 72.012C56.1016 73.2995 55.3939 75.0524 55.4702 76.955ZM42.9736 73.1347C45.4347 74.9006 45.9983 78.3272 44.2324 80.7883C42.4665 83.2494 39.0399 83.813 36.5788 82.0471C34.1177 80.2813 33.5541 76.8546 35.32 74.3935C37.0858 71.9324 40.5125 71.3688 42.9736 73.1347Z" fill="#D0D1E9"/>
</g>
<g filter="url(#filter2_d_226_865)">
<path fill-rule="evenodd" clip-rule="evenodd" d="M46.2015 33.2508C46.2439 34.2719 46.6982 35.1776 47.3994 35.816L47.4023 35.8145C47.6214 36.0146 47.7091 36.3214 47.6229 36.6033C47.5119 36.9671 47.3804 37.3221 47.2314 37.6668C47.116 37.9341 46.856 38.1153 46.5653 38.124C45.6158 38.1518 44.6779 38.5477 43.9811 39.3029C43.2843 40.0581 42.9659 41.0266 43.0141 41.9776C43.0287 42.2683 42.8694 42.5415 42.6123 42.6788C42.1303 42.9359 41.6248 43.155 41.099 43.3332H41.0975C40.3919 42.4845 39.3139 41.9616 38.1262 42.0098C37.1037 42.0507 36.195 42.5064 35.5567 43.2105C35.358 43.4311 35.0512 43.5188 34.7678 43.4326C34.407 43.323 34.055 43.193 33.7117 43.0455C33.4444 42.9301 33.2632 42.67 33.2545 42.3779C33.2267 41.424 32.8308 40.4818 32.0741 39.785C31.316 39.0867 30.3445 38.7682 29.3921 38.8194C29.0999 38.8354 28.8253 38.6762 28.688 38.4177C28.5127 38.089 28.3549 37.7486 28.2162 37.3995C28.1066 37.1248 28.1709 36.8108 28.3739 36.5946C29.0254 35.9022 29.4067 34.9585 29.3658 33.9345C29.3249 32.909 28.8677 31.9989 28.1636 31.362C27.943 31.1633 27.8539 30.8551 27.9415 30.5717C28.0511 30.2109 28.1811 29.8588 28.3286 29.517C28.444 29.2497 28.7055 29.0685 28.9977 29.0598C29.9516 29.0335 30.8938 28.6376 31.5921 27.8809C32.2889 27.1242 32.6073 26.1528 32.5577 25.2018C32.5416 24.9111 32.7008 24.6365 32.9594 24.4991C33.2895 24.3238 33.6313 24.1661 33.9819 24.0273C34.258 23.9177 34.5706 23.982 34.7868 24.1851C35.4778 24.8351 36.42 25.2164 37.444 25.1755C38.4666 25.1346 39.3752 24.6788 40.0121 23.9762C40.2108 23.7556 40.5176 23.6679 40.801 23.7541C41.1632 23.8652 41.5167 23.9952 41.8615 24.1442C42.1274 24.2596 42.3085 24.5196 42.3173 24.8103C42.345 25.7613 42.7409 26.7006 43.4961 27.3974C44.2499 28.0942 45.2184 28.4126 46.1665 28.3644C46.4572 28.3498 46.7303 28.509 46.8677 28.7661C47.0444 29.0977 47.2036 29.441 47.3439 29.7945C47.4534 30.0692 47.3892 30.3818 47.1876 30.598C46.5404 31.2889 46.1606 32.2297 46.2015 33.2508ZM39.4948 31.2004C40.8157 32.1481 41.1181 33.9871 40.1704 35.308C39.2227 36.6288 37.3837 36.9313 36.0629 35.9835C34.742 35.0358 34.4396 33.1968 35.3873 31.876C36.335 30.5551 38.174 30.2527 39.4948 31.2004Z" fill="#151233"/>
</g>
</g>
<defs>
<filter id="filter0_d_226_865" x="28.2219" y="16.5331" width="76.5146" height="76.5175" filterUnits="userSpaceOnUse" color-interpolation-filters="sRGB">
<feFlood flood-opacity="0" result="BackgroundImageFix"/>
<feColorMatrix in="SourceAlpha" type="matrix" values="0 0 0 0 0 0 0 0 0 0 0 0 0 0 0 0 0 0 127 0" result="hardAlpha"/>
<feOffset dy="4"/>
<feGaussianBlur stdDeviation="4"/>
<feComposite in2="hardAlpha" operator="out"/>
<feColorMatrix type="matrix" values="0 0 0 0 0 0 0 0 0 0 0 0 0 0 0 0 0 0 0.75 0"/>
<feBlend mode="overlay" in2="BackgroundImageFix" result="effect1_dropShadow_226_865"/>
<feBlend mode="normal" in="SourceGraphic" in2="effect1_dropShadow_226_865" result="shape"/>
</filter>
<filter id="filter1_d_226_865" x="13.3843" y="55.199" width="52.7952" height="52.7886" filterUnits="userSpaceOnUse" color-interpolation-filters="sRGB">
<feFlood flood-opacity="0" result="BackgroundImageFix"/>
<feColorMatrix in="SourceAlpha" type="matrix" values="0 0 0 0 0 0 0 0 0 0 0 0 0 0 0 0 0 0 127 0" result="hardAlpha"/>
<feOffset dy="4"/>
<feGaussianBlur stdDeviation="4"/>
<feComposite in2="hardAlpha" operator="out"/>
<feColorMatrix type="matrix" values="0 0 0 0 0 0 0 0 0 0 0 0 0 0 0 0 0 0 0.75 0"/>
<feBlend mode="overlay" in2="BackgroundImageFix" result="effect1_dropShadow_226_865"/>
<feBlend mode="normal" in="SourceGraphic" in2="effect1_dropShadow_226_865" result="shape"/>
</filter>
<filter id="filter2_d_226_865" x="19.9082" y="19.7214" width="35.7473" height="35.7439" filterUnits="userSpaceOnUse" color-interpolation-filters="sRGB">
<feFlood flood-opacity="0" result="BackgroundImageFix"/>
<feColorMatrix in="SourceAlpha" type="matrix" values="0 0 0 0 0 0 0 0 0 0 0 0 0 0 0 0 0 0 127 0" result="hardAlpha"/>
<feOffset dy="4"/>
<feGaussianBlur stdDeviation="4"/>
<feComposite in2="hardAlpha" operator="out"/>
<feColorMatrix type="matrix" values="0 0 0 0 0 0 0 0 0 0 0 0 0 0 0 0 0 0 0.75 0"/>
<feBlend mode="overlay" in2="BackgroundImageFix" result="effect1_dropShadow_226_865"/>
<feBlend mode="normal" in="SourceGraphic" in2="effect1_dropShadow_226_865" result="shape"/>
</filter>
<linearGradient id="paint0_linear_226_865" x1="7.93215" y1="15.0855" x2="111.76" y2="119.092" gradientUnits="userSpaceOnUse">
<stop stop-color="#F295B3"/>
<stop offset="0.471038" stop-color="#C1A5D5"/>
<stop offset="0.908097" stop-color="#6785D2"/>
</linearGradient>
<clipPath id="clip0_226_865">
<rect width="100" height="100" fill="white" transform="translate(9.5 9)"/>
</clipPath>
</defs>
</svg>
